<mxfile host="app.diagrams.net" modified="2023-07-28T03:39:47.581Z" agent="Mozilla/5.0 (X11; Linux x86_64) AppleWebKit/537.36 (KHTML, like Gecko) Chrome/114.0.0.0 Safari/537.36" etag="Nki-m_5zI-xa_t0koVB-" version="21.6.5" type="github">
  <diagram name="Page-1" id="xHoJqprVVUahzgXB5t3A">
    <mxGraphModel dx="1035" dy="869" grid="1" gridSize="10" guides="1" tooltips="1" connect="1" arrows="1" fold="1" page="1" pageScale="1" pageWidth="400" pageHeight="300" math="1" shadow="0">
      <root>
        <mxCell id="0" />
        <mxCell id="1" parent="0" />
        <mxCell id="6Jah6KSldDa7oSD2TOF_-5" value="" style="shape=delay;whiteSpace=wrap;html=1;rotation=-180;strokeColor=default;fontColor=default;strokeWidth=2;" parent="1" vertex="1">
          <mxGeometry x="610" y="220.75" width="150" height="22.5" as="geometry" />
        </mxCell>
        <mxCell id="MJRBo0qhkyK9fX0G-ZfJ-2" value="" style="pointerEvents=1;verticalLabelPosition=bottom;shadow=0;dashed=0;align=center;html=1;verticalAlign=top;shape=mxgraph.electrical.inductors.inductor_5;strokeColor=default;fontColor=default;strokeWidth=2;" parent="1" vertex="1">
          <mxGeometry x="360" y="-53" width="100" height="14" as="geometry" />
        </mxCell>
        <mxCell id="6Jah6KSldDa7oSD2TOF_-23" style="edgeStyle=orthogonalEdgeStyle;rounded=0;orthogonalLoop=1;jettySize=auto;html=1;entryX=0;entryY=0.645;entryDx=0;entryDy=0;entryPerimeter=0;endArrow=none;endFill=0;strokeColor=default;fontColor=default;strokeWidth=2;" parent="1" source="MJRBo0qhkyK9fX0G-ZfJ-3" target="MJRBo0qhkyK9fX0G-ZfJ-2" edge="1">
          <mxGeometry relative="1" as="geometry">
            <Array as="points">
              <mxPoint x="240" y="-44" />
            </Array>
          </mxGeometry>
        </mxCell>
        <mxCell id="6Jah6KSldDa7oSD2TOF_-38" style="edgeStyle=orthogonalEdgeStyle;rounded=0;orthogonalLoop=1;jettySize=auto;html=1;entryX=1;entryY=0.5;entryDx=0;entryDy=0;entryPerimeter=0;endArrow=none;endFill=0;strokeColor=default;exitX=0.006;exitY=0.499;exitDx=0;exitDy=0;exitPerimeter=0;fontColor=default;strokeWidth=2;" parent="1" source="MJRBo0qhkyK9fX0G-ZfJ-3" target="MJRBo0qhkyK9fX0G-ZfJ-1" edge="1">
          <mxGeometry relative="1" as="geometry">
            <mxPoint x="241" y="226" as="sourcePoint" />
            <mxPoint x="772.5" y="298.5" as="targetPoint" />
            <Array as="points">
              <mxPoint x="241" y="340" />
              <mxPoint x="780" y="340" />
            </Array>
          </mxGeometry>
        </mxCell>
        <mxCell id="MJRBo0qhkyK9fX0G-ZfJ-3" value="" style="verticalLabelPosition=bottom;shadow=0;dashed=0;align=center;fillColor=strokeColor;html=1;verticalAlign=top;strokeWidth=2;shape=mxgraph.electrical.miscellaneous.monocell_battery;rotation=-90;strokeColor=default;fontColor=default;" parent="1" vertex="1">
          <mxGeometry x="191" y="137" width="100" height="60" as="geometry" />
        </mxCell>
        <UserObject label="&lt;font style=&quot;font-size: 18px;&quot;&gt;\(I_{a} = I_{f}&lt;br&gt;\)&lt;/font&gt;" placeholders="1" name="Variable" id="MJRBo0qhkyK9fX0G-ZfJ-20">
          <mxCell style="text;html=1;strokeColor=none;fillColor=none;align=center;verticalAlign=middle;whiteSpace=wrap;overflow=hidden;fontColor=default;strokeWidth=2;" parent="1" vertex="1">
            <mxGeometry x="444.75" y="-2.8800000000000026" width="180" height="30" as="geometry" />
          </mxCell>
        </UserObject>
        <UserObject label="&lt;font style=&quot;font-size: 18px;&quot;&gt;\(R_{a}\)&lt;/font&gt;" placeholders="1" name="Variable" id="MJRBo0qhkyK9fX0G-ZfJ-21">
          <mxCell style="text;html=1;strokeColor=none;fillColor=none;align=center;verticalAlign=middle;whiteSpace=wrap;overflow=hidden;fontColor=default;strokeWidth=2;" parent="1" vertex="1">
            <mxGeometry x="797" y="87" width="50" height="30" as="geometry" />
          </mxCell>
        </UserObject>
        <UserObject label="&lt;font style=&quot;font-size: 18px;&quot;&gt;\(V\)&lt;/font&gt;" placeholders="1" name="Variable" id="MJRBo0qhkyK9fX0G-ZfJ-22">
          <mxCell style="text;html=1;strokeColor=none;fillColor=none;align=center;verticalAlign=middle;whiteSpace=wrap;overflow=hidden;fontColor=default;strokeWidth=2;" parent="1" vertex="1">
            <mxGeometry x="160" y="152" width="50" height="30" as="geometry" />
          </mxCell>
        </UserObject>
        <UserObject label="&lt;font style=&quot;font-size: 18px;&quot;&gt;\(+\)&lt;/font&gt;" placeholders="1" name="Variable" id="MJRBo0qhkyK9fX0G-ZfJ-23">
          <mxCell style="text;html=1;strokeColor=none;fillColor=none;align=center;verticalAlign=middle;whiteSpace=wrap;overflow=hidden;fontColor=default;strokeWidth=2;" parent="1" vertex="1">
            <mxGeometry x="772.5" y="167" width="50" height="30" as="geometry" />
          </mxCell>
        </UserObject>
        <mxCell id="MJRBo0qhkyK9fX0G-ZfJ-30" style="edgeStyle=orthogonalEdgeStyle;rounded=0;orthogonalLoop=1;jettySize=auto;html=1;fontColor=default;strokeColor=default;strokeWidth=2;" parent="1" edge="1">
          <mxGeometry relative="1" as="geometry">
            <mxPoint x="650" y="-10.96" as="targetPoint" />
            <mxPoint x="440" y="-10.96" as="sourcePoint" />
            <Array as="points">
              <mxPoint x="600" y="-10.96" />
              <mxPoint x="600" y="-10.96" />
            </Array>
          </mxGeometry>
        </mxCell>
        <mxCell id="6Jah6KSldDa7oSD2TOF_-16" style="edgeStyle=orthogonalEdgeStyle;rounded=0;orthogonalLoop=1;jettySize=auto;html=1;entryX=0;entryY=0.645;entryDx=0;entryDy=0;entryPerimeter=0;endArrow=none;endFill=0;exitX=0.998;exitY=0.524;exitDx=0;exitDy=0;exitPerimeter=0;strokeColor=default;fontColor=default;strokeWidth=2;" parent="1" source="6Jah6KSldDa7oSD2TOF_-1" target="6Jah6KSldDa7oSD2TOF_-2" edge="1">
          <mxGeometry relative="1" as="geometry">
            <Array as="points">
              <mxPoint x="630" y="-43" />
              <mxPoint x="779" y="-43" />
            </Array>
          </mxGeometry>
        </mxCell>
        <mxCell id="6Jah6KSldDa7oSD2TOF_-21" style="edgeStyle=orthogonalEdgeStyle;rounded=0;orthogonalLoop=1;jettySize=auto;html=1;entryX=1;entryY=0.645;entryDx=0;entryDy=0;entryPerimeter=0;endArrow=none;endFill=0;strokeColor=default;fontColor=default;strokeWidth=2;" parent="1" source="6Jah6KSldDa7oSD2TOF_-1" target="MJRBo0qhkyK9fX0G-ZfJ-2" edge="1">
          <mxGeometry relative="1" as="geometry" />
        </mxCell>
        <mxCell id="6Jah6KSldDa7oSD2TOF_-1" value="" style="pointerEvents=1;verticalLabelPosition=bottom;shadow=0;dashed=0;align=center;html=1;verticalAlign=top;shape=mxgraph.electrical.resistors.resistor_2;strokeColor=default;fontColor=default;strokeWidth=2;" parent="1" vertex="1">
          <mxGeometry x="530" y="-53" width="100" height="17" as="geometry" />
        </mxCell>
        <mxCell id="6Jah6KSldDa7oSD2TOF_-2" value="" style="pointerEvents=1;verticalLabelPosition=bottom;shadow=0;dashed=0;align=center;html=1;verticalAlign=top;shape=mxgraph.electrical.inductors.inductor_5;strokeColor=default;rotation=90;perimeterSpacing=0;fontColor=default;strokeWidth=2;" parent="1" vertex="1">
          <mxGeometry x="742.5" y="-3" width="80" height="22.16" as="geometry" />
        </mxCell>
        <mxCell id="6Jah6KSldDa7oSD2TOF_-19" style="edgeStyle=orthogonalEdgeStyle;rounded=0;orthogonalLoop=1;jettySize=auto;html=1;entryX=0;entryY=0.5;entryDx=0;entryDy=0;entryPerimeter=0;endArrow=none;endFill=0;strokeColor=default;fontColor=default;strokeWidth=2;" parent="1" source="6Jah6KSldDa7oSD2TOF_-3" target="MJRBo0qhkyK9fX0G-ZfJ-1" edge="1">
          <mxGeometry relative="1" as="geometry" />
        </mxCell>
        <mxCell id="6Jah6KSldDa7oSD2TOF_-20" style="edgeStyle=orthogonalEdgeStyle;rounded=0;orthogonalLoop=1;jettySize=auto;html=1;entryX=1.001;entryY=0.628;entryDx=0;entryDy=0;entryPerimeter=0;endArrow=none;endFill=0;strokeColor=default;fontColor=default;strokeWidth=2;" parent="1" source="6Jah6KSldDa7oSD2TOF_-3" target="6Jah6KSldDa7oSD2TOF_-2" edge="1">
          <mxGeometry relative="1" as="geometry">
            <Array as="points">
              <mxPoint x="780" y="53" />
            </Array>
          </mxGeometry>
        </mxCell>
        <mxCell id="6Jah6KSldDa7oSD2TOF_-3" value="" style="pointerEvents=1;verticalLabelPosition=bottom;shadow=0;dashed=0;align=center;html=1;verticalAlign=top;shape=mxgraph.electrical.resistors.resistor_2;strokeColor=default;rotation=90;fontColor=default;strokeWidth=2;" parent="1" vertex="1">
          <mxGeometry x="742.5" y="87" width="75" height="33.5" as="geometry" />
        </mxCell>
        <mxCell id="MJRBo0qhkyK9fX0G-ZfJ-1" value="" style="shape=mxgraph.electrical.electro-mechanical.motor_2;html=1;shadow=0;dashed=0;align=center;fontSize=30;strokeWidth=2;rotation=90;fillColor=none;strokeColor=default;fillStyle=solid;gradientColor=#b3b3b3;" parent="1" vertex="1">
          <mxGeometry x="730" y="202" width="100" height="60" as="geometry" />
        </mxCell>
        <mxCell id="6Jah6KSldDa7oSD2TOF_-9" value="" style="ellipse;whiteSpace=wrap;html=1;aspect=fixed;strokeColor=default;fillColor=#f5f5f5;gradientColor=#b3b3b3;strokeWidth=2;" parent="1" vertex="1">
          <mxGeometry x="610" y="222" width="20" height="20" as="geometry" />
        </mxCell>
        <mxCell id="6Jah6KSldDa7oSD2TOF_-10" value="" style="curved=1;endArrow=none;html=1;rounded=0;startArrow=classic;startFill=1;endFill=0;strokeColor=default;fontColor=default;strokeWidth=2;" parent="1" edge="1">
          <mxGeometry width="50" height="50" relative="1" as="geometry">
            <mxPoint x="620" y="247" as="sourcePoint" />
            <mxPoint x="630" y="207" as="targetPoint" />
            <Array as="points">
              <mxPoint x="630" y="257" />
              <mxPoint x="650" y="247" />
              <mxPoint x="650" y="217" />
            </Array>
          </mxGeometry>
        </mxCell>
        <mxCell id="6Jah6KSldDa7oSD2TOF_-14" value="" style="curved=1;endArrow=classic;html=1;rounded=0;strokeColor=default;fontColor=default;strokeWidth=2;" parent="1" edge="1">
          <mxGeometry width="50" height="50" relative="1" as="geometry">
            <mxPoint x="660" y="247" as="sourcePoint" />
            <mxPoint x="670" y="207" as="targetPoint" />
            <Array as="points">
              <mxPoint x="670" y="257" />
              <mxPoint x="690" y="247" />
              <mxPoint x="690" y="217" />
            </Array>
          </mxGeometry>
        </mxCell>
        <mxCell id="6Jah6KSldDa7oSD2TOF_-15" value="" style="curved=1;endArrow=classic;html=1;rounded=0;strokeColor=default;fontColor=default;strokeWidth=2;" parent="1" edge="1">
          <mxGeometry width="50" height="50" relative="1" as="geometry">
            <mxPoint x="700" y="247" as="sourcePoint" />
            <mxPoint x="710" y="207" as="targetPoint" />
            <Array as="points">
              <mxPoint x="710" y="257" />
              <mxPoint x="730" y="247" />
              <mxPoint x="730" y="217" />
            </Array>
          </mxGeometry>
        </mxCell>
        <UserObject label="&lt;font style=&quot;font-size: 18px;&quot;&gt;\(-\)&lt;/font&gt;" placeholders="1" name="Variable" id="6Jah6KSldDa7oSD2TOF_-24">
          <mxCell style="text;html=1;strokeColor=none;fillColor=none;align=center;verticalAlign=middle;whiteSpace=wrap;overflow=hidden;fontColor=default;strokeWidth=2;" parent="1" vertex="1">
            <mxGeometry x="772.5" y="271" width="50" height="30" as="geometry" />
          </mxCell>
        </UserObject>
        <UserObject label="&lt;font style=&quot;font-size: 18px;&quot;&gt;\(L_{a}\)&lt;/font&gt;" placeholders="1" name="Variable" id="6Jah6KSldDa7oSD2TOF_-29">
          <mxCell style="text;html=1;strokeColor=none;fillColor=none;align=center;verticalAlign=middle;whiteSpace=wrap;overflow=hidden;fontColor=default;strokeWidth=2;" parent="1" vertex="1">
            <mxGeometry x="797" y="-6.920000000000002" width="50" height="30" as="geometry" />
          </mxCell>
        </UserObject>
        <UserObject label="&lt;font style=&quot;font-size: 18px;&quot;&gt;\(L_{f}\)&lt;/font&gt;" placeholders="1" name="Variable" id="6Jah6KSldDa7oSD2TOF_-30">
          <mxCell style="text;html=1;strokeColor=none;fillColor=none;align=center;verticalAlign=middle;whiteSpace=wrap;overflow=hidden;fontColor=default;strokeWidth=2;" parent="1" vertex="1">
            <mxGeometry x="385" y="-93" width="50" height="30" as="geometry" />
          </mxCell>
        </UserObject>
        <UserObject label="&lt;font style=&quot;font-size: 18px;&quot;&gt;\(R_{f}\)&lt;/font&gt;" placeholders="1" name="Variable" id="6Jah6KSldDa7oSD2TOF_-31">
          <mxCell style="text;html=1;strokeColor=none;fillColor=none;align=center;verticalAlign=middle;whiteSpace=wrap;overflow=hidden;fontColor=default;strokeWidth=2;" parent="1" vertex="1">
            <mxGeometry x="554.5" y="-93" width="50" height="30" as="geometry" />
          </mxCell>
        </UserObject>
        <UserObject label="&lt;font style=&quot;font-size: 18px;&quot;&gt;\(T_c\)&lt;/font&gt;" placeholders="1" name="Variable" id="6Jah6KSldDa7oSD2TOF_-32">
          <mxCell style="text;html=1;strokeColor=none;fillColor=none;align=center;verticalAlign=middle;whiteSpace=wrap;overflow=hidden;fontColor=default;strokeWidth=2;" parent="1" vertex="1">
            <mxGeometry x="569.75" y="257" width="100.5" height="30" as="geometry" />
          </mxCell>
        </UserObject>
        <UserObject label="&lt;font style=&quot;font-size: 18px;&quot;&gt;\(\omega\)&lt;/font&gt;" placeholders="1" name="Variable" id="6Jah6KSldDa7oSD2TOF_-33">
          <mxCell style="text;html=1;strokeColor=none;fillColor=none;align=center;verticalAlign=middle;whiteSpace=wrap;overflow=hidden;fontColor=default;strokeWidth=2;" parent="1" vertex="1">
            <mxGeometry x="610" y="182" width="100.5" height="30" as="geometry" />
          </mxCell>
        </UserObject>
        <UserObject label="&lt;font style=&quot;font-size: 18px;&quot;&gt;\(T_e\)&lt;/font&gt;" placeholders="1" name="Variable" id="6Jah6KSldDa7oSD2TOF_-34">
          <mxCell style="text;html=1;strokeColor=none;fillColor=none;align=center;verticalAlign=middle;whiteSpace=wrap;overflow=hidden;fontColor=default;strokeWidth=2;" parent="1" vertex="1">
            <mxGeometry x="650" y="182" width="100.5" height="30" as="geometry" />
          </mxCell>
        </UserObject>
      </root>
    </mxGraphModel>
  </diagram>
</mxfile>
